<?xml version="1.0" standalone="no"?><!-- Generator: Gravit.io --><svg xmlns="http://www.w3.org/2000/svg" xmlns:xlink="http://www.w3.org/1999/xlink" style="isolation:isolate" viewBox="0 0 600 600" width="600" height="600"><defs><clipPath id="_clipPath_HiSN9hLnG0v1NmgYQQprme8oRkQSRdvX"><rect width="600" height="600"/></clipPath></defs><g clip-path="url(#_clipPath_HiSN9hLnG0v1NmgYQQprme8oRkQSRdvX)"><path d=" M 36.917 410 Q 66 402.5 74 366 Q 93 408.5 111 410 Q 129 411.5 151 362 L 468 362 Q 478.03 400.5 498 399 Q 517.971 397.5 531 366 Q 550 403.5 568 403 Q 586 402.5 477 528 L 132 528 Q 7.834 417.5 36.917 410 Z " fill="rgb(255,255,225)" vector-effect="non-scaling-stroke" stroke-width="3" stroke="rgb(243,243,167)" stroke-linejoin="miter" stroke-linecap="square" stroke-miterlimit="3"/><path d=" M 419.43 590.926 L 299.269 590.736 L 179.107 590.546 C 173.588 590.537 166.366 586.985 162.99 582.62 L 88.309 486.057 L 13.628 389.495 C 10.251 385.129 8.498 377.214 9.715 371.83 L 36.917 251.515 L 64.119 131.199 C 65.336 125.816 70.345 119.469 75.299 117.035 L 183.792 63.724 L 292.286 10.413 C 297.239 7.979 305.275 7.994 310.219 10.447 L 418.335 64.095 L 526.451 117.742 C 531.395 120.195 536.368 126.564 537.549 131.955 L 563.929 252.348 L 590.309 372.741 C 591.49 378.132 589.689 386.039 586.289 390.386 L 510.94 486.725 L 435.591 583.065 C 432.19 587.412 424.949 590.935 419.43 590.926 Z " fill="none" vector-effect="non-scaling-stroke" stroke-width="15" stroke="rgb(221,221,2)" stroke-linejoin="miter" stroke-linecap="square" stroke-miterlimit="3"/><path d=" M 433.675 587.501 L 174.457 587.501 L 117.438 516.718 Q 243.162 495.93 313.073 497.056 Q 382.984 498.182 490.029 516.718 L 433.675 587.501 Z " fill="rgb(221,221,2)"/><path d=" M 228.987 581.89 L 228.987 563.521 L 228.987 563.521 Q 223.625 568.97 216.682 568.97 L 216.682 568.97 L 216.682 568.97 Q 209.827 568.97 204.729 564.136 L 204.729 564.136 L 204.729 564.136 Q 199.28 558.687 199.192 549.898 L 199.192 549.898 L 199.192 549.898 Q 199.192 541.284 204.729 535.747 L 204.729 535.747 L 204.729 535.747 Q 209.739 530.738 216.682 530.781 L 216.682 530.781 L 216.682 530.781 Q 223.625 530.825 228.987 536.275 L 228.987 536.275 L 228.987 534.429 L 228.987 534.429 Q 228.987 533.111 229.91 532.144 L 229.91 532.144 L 229.91 532.144 Q 230.832 531.177 232.239 531.177 L 232.239 531.177 L 232.239 531.177 Q 233.645 531.177 234.568 532.1 L 234.568 532.1 L 234.568 532.1 Q 235.491 533.023 235.491 534.429 L 235.491 534.429 L 235.491 581.89 L 235.491 581.89 Q 235.491 583.296 234.568 584.263 L 234.568 584.263 L 234.568 584.263 Q 233.645 585.23 232.239 585.23 L 232.239 585.23 L 232.239 585.23 Q 230.832 585.23 229.91 584.263 L 229.91 584.263 L 229.91 584.263 Q 228.987 583.296 228.987 581.89 L 228.987 581.89 Z  M 228.987 557.456 L 228.987 542.339 L 228.987 542.339 Q 224.065 536.89 217.561 536.978 L 217.561 536.978 L 217.561 536.978 Q 209.299 536.978 206.75 544.273 L 206.75 544.273 L 206.75 544.273 Q 205.871 546.734 205.784 549.898 L 205.784 549.898 L 205.784 549.898 Q 205.784 556.05 209.123 559.654 L 209.123 559.654 L 209.123 559.654 Q 212.2 562.906 217.561 562.818 L 217.561 562.818 L 217.561 562.818 Q 224.065 562.818 228.987 557.456 L 228.987 557.456 Z  M 260.979 562.906 L 260.979 562.906 L 260.979 562.906 Q 267.307 562.906 272.844 556.05 L 272.844 556.05 L 272.844 534.429 L 272.844 534.429 Q 272.844 533.111 273.767 532.144 L 273.767 532.144 L 273.767 532.144 Q 274.69 531.177 276.096 531.177 L 276.096 531.177 L 276.096 531.177 Q 277.414 531.177 278.381 532.1 L 278.381 532.1 L 278.381 532.1 Q 279.348 533.023 279.348 534.429 L 279.348 534.429 L 279.348 565.279 L 279.348 565.279 Q 279.348 566.685 278.425 567.652 L 278.425 567.652 L 278.425 567.652 Q 277.502 568.618 276.096 568.618 L 276.096 568.618 L 276.096 568.618 Q 274.778 568.618 273.811 567.652 L 273.811 567.652 L 273.811 567.652 Q 272.844 566.685 272.844 565.279 L 272.844 565.279 L 272.844 562.378 L 272.844 562.378 Q 269.944 565.366 267.834 566.597 L 267.834 566.597 L 267.834 566.597 Q 263.791 568.97 260.056 568.97 L 260.056 568.97 L 260.056 568.97 Q 256.321 568.97 253.904 567.827 L 253.904 567.827 L 253.904 567.827 Q 251.487 566.685 249.905 564.839 L 249.905 564.839 L 249.905 564.839 Q 246.565 560.884 246.565 554.907 L 246.565 554.907 L 246.565 534.429 L 246.565 534.429 Q 246.565 533.111 247.488 532.144 L 247.488 532.144 L 247.488 532.144 Q 248.411 531.177 249.817 531.177 L 249.817 531.177 L 249.817 531.177 Q 251.135 531.177 252.102 532.1 L 252.102 532.1 L 252.102 532.1 Q 253.069 533.023 253.069 534.429 L 253.069 534.429 L 253.069 554.116 L 253.069 554.116 Q 253.069 558.159 254.914 560.532 L 254.914 560.532 L 254.914 560.532 Q 256.76 562.906 260.979 562.906 Z  M 292.004 533.374 L 292.004 533.374 L 292.004 533.374 Q 298.069 530.738 304.573 530.825 L 304.573 530.825 L 304.573 530.825 Q 311.868 530.825 315.911 535.308 L 315.911 535.308 L 315.911 535.308 Q 319.514 539.175 319.602 544.976 L 319.602 544.976 L 319.602 565.366 L 319.602 565.366 Q 319.602 566.685 318.591 567.652 L 318.591 567.652 L 318.591 567.652 Q 317.58 568.618 316.174 568.618 L 316.174 568.618 L 316.174 568.618 Q 314.856 568.618 313.889 567.652 L 313.889 567.652 L 313.889 567.652 Q 312.922 566.685 312.922 565.366 L 312.922 565.366 L 312.922 563.521 L 312.922 563.521 Q 310.989 565.542 307.737 567.256 L 307.737 567.256 L 307.737 567.256 Q 304.485 568.97 299.475 568.97 L 299.475 568.97 L 299.475 568.97 Q 294.465 568.97 291.125 566.07 L 291.125 566.07 L 291.125 566.07 Q 287.698 563.081 287.698 558.247 L 287.698 558.247 L 287.698 558.247 Q 287.698 552.886 291.741 549.81 L 291.741 549.81 L 291.741 549.81 Q 296.135 546.47 304.221 546.558 L 304.221 546.558 L 312.922 546.558 L 312.922 545.943 L 312.922 545.943 Q 312.922 541.109 310.593 539.087 L 310.593 539.087 L 310.593 539.087 Q 308.264 537.066 303.342 537.066 L 303.342 537.066 L 303.342 537.066 Q 299.211 537.066 293.762 538.736 L 293.762 538.736 L 293.762 538.736 Q 293.235 538.911 292.488 538.911 L 292.488 538.911 L 292.488 538.911 Q 291.741 538.911 290.95 538.164 L 290.95 538.164 L 290.95 538.164 Q 290.159 537.417 290.115 535.791 L 290.115 535.791 L 290.115 535.791 Q 290.071 534.165 292.004 533.374 Z  M 294.289 557.456 L 294.289 557.456 L 294.289 557.456 Q 294.289 563.257 301.936 563.169 L 301.936 563.169 L 301.936 563.169 Q 305.276 563.169 308.22 561.543 L 308.22 561.543 L 308.22 561.543 Q 311.164 559.917 312.922 557.896 L 312.922 557.896 L 312.922 551.831 L 305.188 551.831 L 305.188 551.831 Q 300.09 551.831 297.19 553.106 L 297.19 553.106 L 297.19 553.106 Q 294.289 554.38 294.289 557.456 Z  M 347.991 562.818 L 347.991 562.818 L 347.991 562.818 Q 352.034 562.818 355.637 560.884 L 355.637 560.884 L 355.637 560.884 Q 356.868 560.181 357.922 560.137 L 357.922 560.137 L 357.922 560.137 Q 358.977 560.093 359.768 561.06 L 359.768 561.06 L 359.768 561.06 Q 360.559 562.027 360.559 563.301 L 360.559 563.301 L 360.559 563.301 Q 360.559 564.575 358.889 565.63 L 358.889 565.63 L 358.889 565.63 Q 353.791 568.97 347.463 568.97 L 347.463 568.97 L 347.463 568.97 Q 339.465 568.97 333.928 563.96 L 333.928 563.96 L 333.928 563.96 Q 328.127 558.599 328.215 549.898 L 328.215 549.898 L 328.215 549.898 Q 328.215 541.197 333.928 535.835 L 333.928 535.835 L 333.928 535.835 Q 339.377 530.738 347.463 530.825 L 347.463 530.825 L 347.463 530.825 Q 351.77 530.825 354.538 531.924 L 354.538 531.924 L 354.538 531.924 Q 357.307 533.023 358.933 534.121 L 358.933 534.121 L 358.933 534.121 Q 360.559 535.22 360.559 536.538 L 360.559 536.538 L 360.559 536.538 Q 360.559 537.857 359.768 538.736 L 359.768 538.736 L 359.768 538.736 Q 358.977 539.615 358.186 539.615 L 358.186 539.615 L 358.186 539.615 Q 356.955 539.615 355.637 538.911 L 355.637 538.911 L 355.637 538.911 Q 351.946 536.89 347.991 536.978 L 347.991 536.978 L 347.991 536.978 Q 341.662 536.978 338.191 540.537 L 338.191 540.537 L 338.191 540.537 Q 334.719 544.097 334.719 549.898 L 334.719 549.898 L 334.719 549.898 Q 334.719 555.698 338.191 559.258 L 338.191 559.258 L 338.191 559.258 Q 341.662 562.818 347.991 562.818 Z  M 386.487 546.294 L 399.495 563.521 L 399.495 563.521 Q 400.198 564.4 400.198 565.674 L 400.198 565.674 L 400.198 565.674 Q 400.198 566.948 399.275 567.783 L 399.275 567.783 L 399.275 567.783 Q 398.352 568.618 397.209 568.618 L 397.209 568.618 L 397.209 568.618 Q 395.452 568.618 394.221 567.3 L 394.221 567.3 L 381.828 550.425 L 375.588 556.138 L 375.588 565.366 L 375.588 565.366 Q 375.588 566.685 374.621 567.652 L 374.621 567.652 L 374.621 567.652 Q 373.655 568.618 372.336 568.618 L 372.336 568.618 L 372.336 568.618 Q 371.018 568.618 370.051 567.652 L 370.051 567.652 L 370.051 567.652 Q 369.084 566.685 369.084 565.366 L 369.084 565.366 L 369.084 518.609 L 369.084 518.609 Q 369.084 517.29 370.007 516.323 L 370.007 516.323 L 370.007 516.323 Q 370.93 515.357 372.336 515.357 L 372.336 515.357 L 372.336 515.357 Q 373.655 515.357 374.621 516.323 L 374.621 516.323 L 374.621 516.323 Q 375.588 517.29 375.588 518.609 L 375.588 518.609 L 375.588 548.052 L 392.727 532.232 L 392.727 532.232 Q 393.87 531.353 395.32 531.353 L 395.32 531.353 L 395.32 531.353 Q 396.77 531.353 397.429 532.364 L 397.429 532.364 L 397.429 532.364 Q 398.088 533.374 398.088 534.165 L 398.088 534.165 L 398.088 534.165 Q 398.088 535.747 396.858 536.978 L 396.858 536.978 L 386.487 546.294 Z " fill-rule="evenodd" fill="rgb(255,255,255)"/><path d=" M 275.173 463.795 C 174.537 468.926 79.29 407.24 101.161 298.171 C 123.032 189.103 156.9 295.869 232.333 291.643 C 307.766 287.417 473.624 272.058 471.226 362.173 C 468.829 452.288 375.808 458.664 275.173 463.795 Z " fill="rgb(255,255,194)" vector-effect="non-scaling-stroke" stroke-width="3" stroke="rgb(231,231,78)" stroke-linejoin="miter" stroke-linecap="square" stroke-miterlimit="3"/><path d=" M 273.288 423.434 C 224.844 425.904 178.993 396.209 189.522 343.705 C 200.05 291.202 216.353 342.597 252.665 340.563 C 288.977 338.529 368.819 331.135 367.664 374.514 C 366.51 417.894 321.732 420.963 273.288 423.434 Z " fill="rgb(255,255,194)" vector-effect="non-scaling-stroke" stroke-width="3" stroke="rgb(231,231,78)" stroke-linejoin="miter" stroke-linecap="square" stroke-miterlimit="3"/><circle vector-effect="non-scaling-stroke" cx="373.929819375166" cy="235.5" r="80.5" fill="rgb(255,255,194)" stroke-width="3" stroke="rgb(231,231,78)" stroke-linejoin="miter" stroke-linecap="butt" stroke-miterlimit="3"/><circle vector-effect="non-scaling-stroke" cx="387.92981937516595" cy="212.34817365426017" r="14" fill="rgb(255,255,241)" stroke-width="3" stroke="rgb(231,231,78)" stroke-linejoin="miter" stroke-linecap="butt" stroke-miterlimit="3"/><path d=" M 443.993 236.874 C 406.382 227.652 408.392 267.599 421.659 274.661 C 434.926 281.723 463.42 293.331 486.416 259.341 C 509.413 225.351 481.605 246.096 443.993 236.874 Z " fill="rgb(255,215,115)" vector-effect="non-scaling-stroke" stroke-width="3" stroke="rgb(231,231,78)" stroke-linejoin="miter" stroke-linecap="square" stroke-miterlimit="3"/></g></svg>